<svg xmlns="http://www.w3.org/2000/svg" viewBox="0 0 64 64" width="64" height="64">
  <defs>
    <linearGradient id="puzzleGrad" x1="0%" y1="0%" x2="100%" y2="100%">
      <stop offset="0%" style="stop-color:#8B5CF6"/>
      <stop offset="100%" style="stop-color:#7C3AED"/>
    </linearGradient>
  </defs>
  <!-- Puzzle piece shape -->
  <path d="M12 20 
           L22 20 
           Q22 14 27 14 Q32 14 32 20 
           L42 20 
           L42 30 
           Q48 30 48 35 Q48 40 42 40 
           L42 52 
           L32 52 
           Q32 46 27 46 Q22 46 22 52 
           L12 52 
           L12 40 
           Q6 40 6 35 Q6 30 12 30 
           Z" 
        fill="url(#puzzleGrad)" stroke="#6D28D9" stroke-width="2"/>
  <!-- Highlight -->
  <path d="M14 22 L20 22 Q20 18 25 18" fill="none" stroke="#C4B5FD" stroke-width="2" stroke-linecap="round"/>
  <!-- Decorative dots -->
  <circle cx="27" cy="32" r="3" fill="#DDD6FE"/>
  <circle cx="27" cy="42" r="2" fill="#DDD6FE" opacity="0.6"/>
</svg>
