<svg xmlns="http://www.w3.org/2000/svg" viewBox="0 0 64 64" width="64" height="64">
  <defs>
    <linearGradient id="cloudGrad" x1="0%" y1="0%" x2="0%" y2="100%">
      <stop offset="0%" style="stop-color:#F1F5F9"/>
      <stop offset="100%" style="stop-color:#CBD5E1"/>
    </linearGradient>
  </defs>
  <!-- Cloud shape -->
  <path d="M12 40 
           Q6 40 6 34 Q6 28 14 28 
           Q14 18 26 18 
           Q34 14 42 20 
           Q44 18 48 18 Q56 18 56 28 Q60 30 58 36 Q58 40 52 40 Z" 
        fill="url(#cloudGrad)" stroke="#94A3B8" stroke-width="2"/>
  <!-- Upload arrow -->
  <g>
    <rect x="28" y="32" width="8" height="16" rx="2" fill="#3B82F6"/>
    <polygon points="32,22 22,34 28,34 28,32 32,28 36,32 36,34 42,34" fill="#3B82F6"/>
    <!-- Arrow shine -->
    <rect x="30" y="34" width="2" height="12" rx="1" fill="#93C5FD" opacity="0.6"/>
  </g>
  <!-- Sync dots -->
  <circle cx="20" cy="46" r="2" fill="#10B981"/>
  <circle cx="32" cy="52" r="2" fill="#10B981"/>
  <circle cx="44" cy="46" r="2" fill="#10B981"/>
  <!-- Connecting lines -->
  <path d="M22 46 Q27 50 30 52" fill="none" stroke="#10B981" stroke-width="1.5"/>
  <path d="M34 52 Q37 50 42 46" fill="none" stroke="#10B981" stroke-width="1.5"/>
</svg>
