<svg width="200" height="200" viewBox="0 0 200 200" xmlns="http://www.w3.org/2000/svg">
  <!-- Staff Lines -->
  <line x1="40" y1="100" x2="160" y2="100" stroke="#BDBDBD" stroke-width="2" />
  <line x1="40" y1="110" x2="160" y2="110" stroke="#BDBDBD" stroke-width="2" />
  <line x1="40" y1="120" x2="160" y2="120" stroke="#BDBDBD" stroke-width="2" />
  
  <!-- Treble Clef (Simplified) -->
  <path d="M60,130 C50,130 50,110 60,100 C70,90 70,70 60,60 L60,140 C50,150 70,150 70,130" fill="none" stroke="#212121" stroke-width="3" />
  
  <!-- Music Notes -->
  <!-- Eighth Note -->
  <ellipse cx="90" cy="115" rx="6" ry="5" fill="#1E88E5" transform="rotate(-20 90 115)" />
  <line x1="94" y1="112" x2="94" y2="80" stroke="#1E88E5" stroke-width="2" />
  <path d="M94,80 Q104,85 104,95" fill="none" stroke="#1E88E5" stroke-width="3" />
  
  <!-- Beamed Notes -->
  <ellipse cx="120" cy="105" rx="6" ry="5" fill="#D81B60" transform="rotate(-20 120 105)" />
  <line x1="124" y1="102" x2="124" y2="70" stroke="#D81B60" stroke-width="2" />
  
  <ellipse cx="140" cy="95" rx="6" ry="5" fill="#D81B60" transform="rotate(-20 140 95)" />
  <line x1="144" y1="92" x2="144" y2="60" stroke="#D81B60" stroke-width="2" />
  
  <line x1="124" y1="70" x2="144" y2="60" stroke="#D81B60" stroke-width="4" />
</svg>
