<svg width="200" height="100" viewBox="0 0 200 100" fill="none" xmlns="http://www.w3.org/2000/svg">
<!-- Lion -->
<circle cx="40" cy="50" r="25" fill="#F5A623"/>
<circle cx="30" cy="45" r="3" fill="#333"/>
<circle cx="50" cy="45" r="3" fill="#333"/>
<path d="M35 60Q40 65 45 60" stroke="#333" stroke-width="2"/>
<path d="M15 50Q10 20 40 20Q70 20 65 50Q70 80 40 80Q10 80 15 50" fill="none" stroke="#D35400" stroke-width="4"/>
<!-- Bear -->
<circle cx="100" cy="50" r="22" fill="#795548"/>
<circle cx="92" cy="45" r="3" fill="#333"/>
<circle cx="108" cy="45" r="3" fill="#333"/>
<path d="M96 55H104" stroke="#333" stroke-width="2"/>
<circle cx="80" cy="30" r="8" fill="#795548"/>
<circle cx="120" cy="30" r="8" fill="#795548"/>
<!-- Giraffe -->
<path d="M160 80V40L170 20L180 40V80" fill="#FFD54F"/>
<circle cx="165" cy="45" r="2" fill="#8D6E63"/>
<circle cx="175" cy="55" r="2" fill="#8D6E63"/>
<circle cx="165" cy="65" r="2" fill="#8D6E63"/>
<circle cx="175" cy="75" r="2" fill="#8D6E63"/>
<circle cx="170" cy="15" r="10" fill="#FFD54F"/>
<circle cx="166" cy="12" r="2" fill="#333"/>
<circle cx="174" cy="12" r="2" fill="#333"/>
</svg>
