<svg xmlns="http://www.w3.org/2000/svg" viewBox="0 0 64 64" width="64" height="64">
  <defs>
    <linearGradient id="gearGrad" x1="0%" y1="0%" x2="100%" y2="100%">
      <stop offset="0%" style="stop-color:#14B8A6"/>
      <stop offset="100%" style="stop-color:#0D9488"/>
    </linearGradient>
  </defs>
  <!-- Outer gear teeth -->
  <path d="M32 4 L36 4 L37 10 Q40 11 42 13 L48 10 L51 14 L46 19 Q47 22 47 24 L54 26 L54 30 L47 32 Q47 35 45 38 L50 44 L47 48 L41 44 Q38 46 35 47 L34 54 L30 54 L29 47 Q26 46 23 44 L17 48 L14 44 L19 38 Q17 35 17 32 L10 30 L10 26 L17 24 Q17 21 19 18 L14 13 L18 9 L24 14 Q27 12 30 11 L32 4 Z" 
        fill="url(#gearGrad)" stroke="#0F766E" stroke-width="1"/>
  <!-- Inner circle -->
  <circle cx="32" cy="32" r="10" fill="#F0FDFA" stroke="#14B8A6" stroke-width="2"/>
  <!-- Center dot -->
  <circle cx="32" cy="32" r="4" fill="#14B8A6"/>
</svg>
